<?xml version="1.0" encoding="UTF-8"?>
<svg width="512" height="512" viewBox="0 0 512 512" fill="none" xmlns="http://www.w3.org/2000/svg">
  <!-- 背景圆形 -->
  <circle cx="256" cy="256" r="256" fill="#4285F4"/>
  
  <!-- 工具图标 - 简约风格 -->
  <g transform="translate(128, 128) scale(1.0)">
    <!-- 扳手图标 -->
    <path d="M230.9 107.5l-48.1 48.1c-5.4 5.4-5.4 14.2 0 19.6l33.5 33.5c5.4 5.4 14.2 5.4 19.6 0l48.1-48.1c5.4-5.4 5.4-14.2 0-19.6l-33.5-33.5c-5.4-5.4-14.2-5.4-19.6 0z" fill="white"/>
    <path d="M127.8 210.6l-48.1 48.1c-5.4 5.4-5.4 14.2 0 19.6l33.5 33.5c5.4 5.4 14.2 5.4 19.6 0l48.1-48.1c5.4-5.4 5.4-14.2 0-19.6l-33.5-33.5c-5.4-5.4-14.2-5.4-19.6 0z" fill="white"/>
    
    <!-- 连接线 -->
    <path d="M127.8 210.6l103.1-103.1" stroke="white" stroke-width="20" stroke-linecap="round"/>
  </g>
</svg>
